# xmcd CD database file
#
# Track frame offsets:
#	183
#	15313
#	29840
#	50193
#	66398
#	82405
#	92408
#	111308
#	128885
#	142793
#
# Disc length: 2057 seconds
#
# Revision: 3
# Processed by: cddbd v1.4PL0 Copyright (c) Steve Scherf et al.
# Submitted via: CDex 1.40Release
#
DISCID=8e08070a
DTITLE=Dwight Yoakam - Hillbilly Deluxe
DYEAR=1987
DGENRE=Country
TTITLE0=Little Ways
TTITLE1=Smoke Along The Track
TTITLE2=Johnson's Love
TTITLE3=Please, Please Baby
TTITLE4=Readin', Rightin', Rt. 23
TTITLE5=Always Late With Your Kisses
TTITLE6=1,000 Miles
TTITLE7=Throughout All Time
TTITLE8=Little Sister
TTITLE9=This Drinkin' Will Kill Me
EXTD=YEAR: 1987 ID3G: 2
EXTT0=
EXTT1=
EXTT2=
EXTT3=
EXTT4=
EXTT5=
EXTT6=
EXTT7=
EXTT8=
EXTT9=
PLAYORDER=
